<svg width="96" height="27" viewBox="0 0 96 27" fill="none" xmlns="http://www.w3.org/2000/svg">
<path d="M80.4561 26.0875V5.15519H84.6927L84.8599 8.47203L84.0237 8.22117C84.1538 7.60798 84.4697 7.05053 84.9714 6.54882C85.4731 6.04711 86.1049 5.64761 86.8667 5.3503C87.6472 5.03441 88.4648 4.87646 89.3195 4.87646C90.5831 4.87646 91.7073 5.21094 92.6921 5.87988C93.6769 6.53024 94.4481 7.43145 95.0055 8.58352C95.5816 9.717 95.8696 11.0363 95.8696 12.5414C95.8696 14.028 95.5816 15.3473 95.0055 16.4993C94.4481 17.6514 93.6677 18.5619 92.6642 19.2308C91.6794 19.8812 90.5459 20.2064 89.2638 20.2064C88.4276 20.2064 87.6286 20.0484 86.8667 19.7326C86.1049 19.4167 85.4638 18.9893 84.9435 18.4504C84.4233 17.9115 84.0795 17.3262 83.9123 16.6944L84.9435 16.3042V26.0875H80.4561ZM88.1768 16.4436C88.8457 16.4436 89.431 16.2856 89.9327 15.9698C90.4344 15.6353 90.8247 15.18 91.1034 14.604C91.3821 14.028 91.5215 13.3404 91.5215 12.5414C91.5215 11.761 91.3821 11.0828 91.1034 10.5067C90.8247 9.91211 90.4344 9.45686 89.9327 9.14097C89.4496 8.8065 88.8643 8.63926 88.1768 8.63926C87.4892 8.63926 86.8946 8.79721 86.3929 9.1131C85.8912 9.42899 85.501 9.88424 85.2223 10.4789C84.9435 11.0735 84.8042 11.761 84.8042 12.5414C84.8042 13.3404 84.9435 14.028 85.2223 14.604C85.501 15.18 85.8912 15.6353 86.3929 15.9698C86.8946 16.2856 87.4892 16.4436 88.1768 16.4436Z" fill="white"/>
<path d="M71.1778 20.2348C69.5426 20.2348 68.1211 19.9096 66.9133 19.2593C65.7055 18.5903 64.7671 17.6891 64.0981 16.5556C63.4292 15.4035 63.0947 14.0935 63.0947 12.6256C63.0947 11.4921 63.2805 10.4515 63.6522 9.50384C64.0238 8.55618 64.5441 7.73858 65.213 7.05106C65.882 6.34495 66.6717 5.80608 67.5822 5.43445C68.5113 5.04423 69.524 4.84912 70.6203 4.84912C71.6609 4.84912 72.6086 5.03494 73.4633 5.40657C74.3367 5.77821 75.0892 6.2985 75.721 6.96744C76.3528 7.63638 76.8359 8.42611 77.1704 9.33661C77.5049 10.2471 77.6535 11.2412 77.6163 12.319L77.5885 13.5175H65.7984L65.1573 11.009H73.965L73.4912 11.5385V10.9811C73.454 10.5165 73.3054 10.1078 73.0452 9.7547C72.8037 9.38306 72.4785 9.09505 72.0697 8.89065C71.6609 8.68625 71.1964 8.58405 70.6761 8.58405C69.9514 8.58405 69.3289 8.7327 68.8086 9.03001C68.3069 9.30874 67.926 9.72683 67.6658 10.2843C67.4057 10.8231 67.2756 11.4921 67.2756 12.2911C67.2756 13.1087 67.4428 13.8241 67.7773 14.4373C68.1304 15.0319 68.6321 15.4965 69.2824 15.8309C69.9514 16.1654 70.7411 16.3326 71.6516 16.3326C72.2834 16.3326 72.8408 16.2397 73.324 16.0539C73.8257 15.8681 74.3645 15.5522 74.9406 15.1062L77.031 18.0607C76.455 18.5624 75.8418 18.9712 75.1914 19.2871C74.5411 19.603 73.8721 19.8353 73.1846 19.9839C72.5157 20.1512 71.8467 20.2348 71.1778 20.2348Z" fill="white"/>
<path d="M54.3817 19.9558V1.42053H58.8414V19.9558H54.3817ZM51.7617 9.05762V5.15546H61.7122V9.05762H51.7617Z" fill="white"/>
<path d="M42.4301 20.2355C41.148 20.2355 39.9866 20.0868 38.9461 19.7895C37.9241 19.4736 37.0136 19.0277 36.2145 18.4517C35.4155 17.857 34.7001 17.1602 34.0684 16.3612L36.9392 13.1001C37.8683 14.3451 38.7974 15.1813 39.7265 15.6087C40.6742 16.036 41.6497 16.2497 42.6531 16.2497C43.1548 16.2497 43.6101 16.1847 44.0189 16.0546C44.4277 15.9245 44.7436 15.7387 44.9665 15.4972C45.1895 15.237 45.301 14.9211 45.301 14.5495C45.301 14.2708 45.2267 14.0199 45.078 13.7969C44.948 13.5739 44.7621 13.3788 44.5206 13.2116C44.279 13.0444 43.991 12.8957 43.6565 12.7656C43.3221 12.617 42.969 12.4962 42.5974 12.4033C42.2257 12.2918 41.8448 12.1989 41.4546 12.1246C40.3769 11.883 39.4385 11.5857 38.6395 11.2327C37.8405 10.8796 37.1715 10.4522 36.6326 9.95051C36.1123 9.43022 35.7221 8.8449 35.462 8.19454C35.2018 7.5256 35.0718 6.78233 35.0718 5.96473C35.0718 5.09139 35.2669 4.29238 35.6571 3.56769C36.0659 2.82442 36.6048 2.19264 37.2737 1.67236C37.9612 1.13348 38.751 0.724686 39.6429 0.445961C40.5348 0.148654 41.4639 0 42.4301 0C43.7123 0 44.8086 0.139363 45.7191 0.418088C46.6482 0.678233 47.4379 1.05916 48.0883 1.56087C48.7572 2.06257 49.324 2.66648 49.7885 3.37258L46.8619 6.18771C46.4717 5.70459 46.0443 5.30508 45.5797 4.98919C45.1338 4.6733 44.6507 4.43174 44.1304 4.26451C43.6287 4.09727 43.1084 4.01365 42.5695 4.01365C42.012 4.01365 41.5289 4.08798 41.1201 4.23663C40.7299 4.36671 40.4233 4.56181 40.2003 4.82196C39.9774 5.06352 39.8659 5.36083 39.8659 5.71388C39.8659 6.02977 39.9588 6.2992 40.1446 6.52219C40.3304 6.74517 40.5813 6.94957 40.8971 7.13538C41.213 7.30262 41.5754 7.45127 41.9842 7.58134C42.393 7.69283 42.8204 7.78574 43.2663 7.86007C44.2883 8.06447 45.2081 8.3339 46.0257 8.66837C46.8619 9.00285 47.5773 9.41164 48.1719 9.89477C48.7851 10.3779 49.2496 10.9539 49.5655 11.6229C49.9 12.2732 50.0672 13.0351 50.0672 13.9084C50.0672 15.2649 49.7328 16.417 49.0638 17.3646C48.4135 18.2937 47.5122 19.0091 46.3602 19.5108C45.2267 19.9939 43.9167 20.2355 42.4301 20.2355Z" fill="white"/>
<path d="M26.211 20.2348C24.5758 20.2348 23.1543 19.9096 21.9465 19.2593C20.7387 18.5903 19.8003 17.6891 19.1313 16.5556C18.4624 15.4035 18.1279 14.0935 18.1279 12.6256C18.1279 11.4921 18.3137 10.4515 18.6854 9.50384C19.057 8.55618 19.5773 7.73858 20.2462 7.05106C20.9152 6.34495 21.7049 5.80608 22.6154 5.43445C23.5445 5.04423 24.5572 4.84912 25.6535 4.84912C26.6941 4.84912 27.6418 5.03494 28.4965 5.40657C29.3699 5.77821 30.1224 6.2985 30.7542 6.96744C31.386 7.63638 31.8691 8.42611 32.2036 9.33661C32.5381 10.2471 32.6867 11.2412 32.6495 12.319L32.6217 13.5175H20.8316L20.1905 11.009H28.9982L28.5244 11.5385V10.9811C28.4872 10.5165 28.3386 10.1078 28.0784 9.7547C27.8369 9.38306 27.5117 9.09505 27.1029 8.89065C26.6941 8.68625 26.2296 8.58405 25.7093 8.58405C24.9846 8.58405 24.3621 8.7327 23.8418 9.03001C23.3401 9.30874 22.9592 9.72683 22.699 10.2843C22.4389 10.8231 22.3088 11.4921 22.3088 12.2911C22.3088 13.1087 22.4761 13.8241 22.8105 14.4373C23.1636 15.0319 23.6653 15.4965 24.3156 15.8309C24.9846 16.1654 25.7743 16.3326 26.6848 16.3326C27.3166 16.3326 27.874 16.2397 28.3572 16.0539C28.8589 15.8681 29.3977 15.5522 29.9738 15.1062L32.0642 18.0607C31.4882 18.5624 30.875 18.9712 30.2246 19.2871C29.5743 19.603 28.9053 19.8353 28.2178 19.9839C27.5489 20.1512 26.8799 20.2348 26.211 20.2348Z" fill="white"/>
<path d="M7.69284 19.9561V10.2286L7.88794 11.5943L0 0.445312H5.37941L11.3999 9.08581L8.9471 9.0022L14.3823 0.445312H19.5944L12.041 11.9009L12.459 10.0056V19.9561H7.69284Z" fill="white"/>
</svg>
