<svg width="1920" height="89" viewBox="0 0 1920 89" fill="none" xmlns="http://www.w3.org/2000/svg">
<path d="M1920 84.207L0.000244141 84.2069L0.000245635 67.1138L223.807 67.1139L562.704 51.9L1071.05 61.2861L1411.85 51.9L1624.76 22.3342L1785.05 18.9617L1920 4.20703L1920 84.207Z" fill="#EEF0E9"/>
<path d="M20.441 55.7308C42.5227 55.4312 71.4681 55.7515 93.4663 56.1913C100.361 56.3276 96.8695 56.9372 101.629 57.0588C110.937 57.2958 119.608 56.9969 128.807 57.2792C131.855 57.3758 128.06 58.3414 131.257 58.4205C148.773 58.8472 165.343 58.6013 183.087 58.8065C196.691 58.9642 210.26 59.1061 223.807 59.2349L223.454 59.2429C296.899 56.6455 369.715 53.6931 444.355 50.7142C473.503 49.5501 508.967 48.8352 539.05 47.1011C542.562 46.8978 540.429 46.1452 541.094 46.0454C551.532 44.5063 548.122 46.3721 554.979 46.2919C557.445 46.2626 559.936 46.2255 562.447 46.181L562.809 46.1762C587.976 47.3253 615.14 47.8644 638.945 48.0065C650.083 48.0704 638.95 46.1811 650.144 47.3329C650.921 47.4111 648.079 48.2588 651.131 48.4112C658.052 48.7549 671.193 48.8366 676.558 49.007C686.899 49.34 688.61 49.3625 698.394 49.5534C711.767 49.8222 727.666 50.5632 742.019 50.6243C745.083 50.6346 741.045 49.6373 745.932 49.5705C750.824 49.504 763.757 49.8211 768.113 50.119C772.471 50.4172 770.6 51.1079 771.369 51.2884C777.693 52.8083 792.69 51.1418 794.615 51.1293C829.729 50.9587 859.806 52.6211 892.752 53.2263C917.763 53.6834 944.514 53.8118 968.311 54.3013C996.662 54.8881 1020.68 55.8316 1048.23 56.2543C1051.14 56.3 1047.75 55.1524 1051.3 55.206C1057.93 55.3062 1064.54 55.4137 1071.15 55.5307L1070.89 55.5319C1101.91 54.6537 1132.8 53.9893 1163.77 53.7403C1167.54 53.7109 1162.71 54.7967 1166.48 54.8243C1189.54 54.9724 1226.04 55.8482 1239.6 51.3261C1255.21 51.0582 1274.16 50.7037 1288.14 51.1549C1297.15 51.4448 1288.44 52.7228 1299.48 51.9757C1301.98 51.8084 1298.71 50.9894 1302.45 50.8072C1318.18 50.0411 1335.39 49.8626 1350.95 48.9643C1354.12 48.7795 1353.23 47.9894 1354.12 47.8181C1361.63 46.4234 1374.25 48.0396 1376.99 48.1068C1389.97 48.4109 1400.76 48.202 1411.73 47.8782L1411.29 47.9149C1417.91 46.9834 1424.58 46.0021 1431.86 45.0012C1436.33 44.3875 1430.9 44.0372 1435.19 43.4078C1457.45 40.1577 1480.55 37.045 1502.44 34.4953C1507.31 33.9308 1502.98 35.4734 1505.31 35.2508C1515.6 34.2583 1517.62 32.2006 1527.48 31.215C1529.56 31.005 1528.51 31.9568 1528.9 31.9911C1534.99 32.5332 1539.85 29.8912 1541.36 29.6377C1560.49 26.3882 1573.05 26.6978 1591.56 23.8357C1593.78 23.4913 1588.63 23.1869 1594.87 22.2798C1604.52 20.8737 1614.31 19.4793 1624.17 18.1056L1624.67 18.0659C1657.52 17.3582 1691.08 16.9594 1722.97 16.9081C1729.44 16.8963 1724.84 17.7512 1725.25 17.8361C1731.9 19.1565 1736.15 17.1104 1738.25 16.9924C1754.85 16.1127 1770.41 17.4265 1781.64 14.8593C1782.75 14.8488 1783.86 14.8377 1784.96 14.8261L1784.6 14.8497C1829.76 10.3942 1874.7 5.11361 1919.59 0.476448L1923.73 -0.000190409L1923.75 4.20703C1923.61 27.95 1923.29 51.6607 1922.59 75.3417C1922.56 76.229 1921.6 74.639 1921.55 76.409C1921.48 79.4976 1921.44 82.0527 1921.44 84.207L1921.45 85.6402L1920 85.6487C1907.29 85.6606 1908.53 86.9825 1896.47 88.5486C1892.92 89.0085 1882.11 86.7973 1881.15 86.6352C1877.67 86.0379 1881.28 84.6045 1880.12 84.4888C1870.46 83.5805 1872.04 88.321 1859.01 88.3226C1858.6 88.3147 1860.32 87.4421 1859.22 87.3554C1855.83 87.083 1852.46 87.4297 1849.14 87.1293C1841.53 86.4343 1838.82 84.1308 1827.2 85.4714C1825.73 85.6454 1827.98 88.3345 1816.35 88.2075C1811.72 88.1545 1791.2 88.2006 1785.45 88.0264C1779.7 87.8523 1783.65 86.9858 1783.24 86.9482C1767.76 85.8024 1773.63 85.3275 1765.87 83.6311C1758.12 81.941 1760.27 85.9719 1757.11 86.4218C1753.94 86.8704 1742.6 85.925 1739.81 85.5964C1737.02 85.2676 1740.5 84.717 1738.02 84.5309C1721.59 83.3152 1730.81 86.5317 1725.39 87.1714C1712.63 88.6863 1702.69 85.697 1691 85.4041C1687.84 85.325 1690.42 86.0058 1687.6 86.0695C1676.45 86.3126 1669.74 85.3799 1657.06 86.2351C1654.98 86.3745 1644.73 88.1717 1638.09 86.8528C1637.15 86.6626 1639.82 85.9177 1635.07 85.7508C1627.97 85.5004 1615.17 85.3375 1607.54 85.5865C1601.91 85.7708 1608.37 86.9982 1601.27 86.6169C1598.12 86.4467 1603.96 85.7286 1598.04 85.4686C1592.15 85.2087 1577.09 85.2403 1571.36 85.2651C1565.64 85.2904 1568.77 86.2215 1568.31 86.2842C1565.51 86.6436 1554.53 87.0925 1553.56 87.0914C1504.63 87.2051 1459.5 85.6356 1411.86 86.1551C1408.12 86.1945 1410.61 87.1763 1410.04 87.1925C1397.24 87.6039 1407.33 84.9933 1398.39 84.1195C1399.68 86.112 1394.4 85.7512 1385.38 85.9698C1381.04 86.0767 1383.41 86.8482 1383.01 86.9272C1376.57 88.099 1372.08 86.5854 1370.92 86.2758C1366.66 85.1368 1362.01 86.4826 1359.11 85.7213C1356.21 84.9657 1362.89 83.8455 1354.24 83.8598C1351.81 84.5731 1358.23 86.437 1351.67 86.739C1326.9 87.8817 1280.66 86.4193 1260.74 86.2674C1240.86 86.1156 1234.44 86.2472 1222.86 85.9894C1201.94 85.5233 1209.6 86.9062 1196.61 87.5392C1183.58 88.1721 1189.92 84.7696 1188.04 84.0381C1186.21 83.307 1184.2 84.0596 1181.91 83.6577C1179.63 83.2559 1184.57 82.7585 1179.21 82.6076C1173.84 82.4569 1159.18 83.7576 1157.27 84.5224C1153.25 86.1427 1159.86 87.8433 1145.67 87.2458C1144.85 87.2103 1147.5 86.3157 1144.38 86.2252C1119.55 85.5365 1093.76 85.4938 1068.96 84.8846C1065.55 84.7994 1068.6 83.8041 1066.62 83.7433C1045.95 83.1067 1053.34 84.7849 1042.01 86.6492C1044.55 84.1682 1038.29 82.6503 1022.6 82.6357C1013.17 82.626 1014.8 83.7096 1008.7 84.4733C1006.87 84.7035 1000.2 83.9595 998.988 84.4691C995.001 86.1348 1001.29 87.9995 985.113 87.257C984.404 87.2217 986.663 86.3099 984.211 86.2547C968.364 85.8933 966.467 87.6356 949.337 87.8466C935.91 88.0122 912.029 86.9497 896.74 86.7769C897.062 83.9876 882.621 84.6263 876.763 86.5495C866.841 86.4708 856.124 86.5795 846.534 86.3136C843.233 86.223 845.401 85.4154 844.985 85.3282C838.603 83.9593 834.29 85.8304 832.148 85.9037C808.936 86.6168 790.024 85.1987 767.871 86.5846C767.085 86.6345 765.811 88.572 759.889 87.1573C759.506 87.0598 766.822 86.1783 756.402 86.1101C745.979 86.0418 726.331 85.0031 711.862 85.9009C708.36 86.1171 699.504 87.69 692.396 86.461C691.449 86.2942 692.485 85.7385 691.118 85.4292C686.699 84.4439 684.286 86.4023 679.092 84.7386C673.898 83.0749 663.095 81.8289 648.502 82.9768C648.038 83.0102 644.583 84.5624 639.994 84.5378C632.668 84.4973 622.269 84.1739 614.62 84.1841C610.958 84.1895 613.302 85.1533 612.666 85.1709C588.041 85.711 570.516 84.8518 544.135 84.4788C539.299 84.4086 525.402 85.7229 516.041 84.6838C505.761 83.5463 516.324 78.8144 492.696 79.9417C483.166 80.3927 471.1 86.3959 453.974 83.2856C420.758 84.0563 390.04 82.4645 356.732 83.565C355.234 83.6137 350.498 85.2892 346.976 85.2664C341.748 85.2293 338.879 84.4462 335.146 84.3946C319.504 84.1587 305.191 84.8287 290.11 84.7245C284.385 84.6866 286.387 83.8769 279.558 83.8317C272.733 83.7872 268.182 84.8534 258.934 84.3384C251.949 83.9459 244.965 81.7666 235.694 81.5126C235.341 83.6622 228.974 83.618 217.656 84.1854C215.481 84.2955 217.813 85.0437 216.784 85.1344C212.596 85.52 208.72 84.8999 204.744 85.3197C203.776 85.4205 203.73 86.1546 202.94 86.2785C196.215 87.3596 185.136 85.7083 183.233 85.4208C175.94 84.3288 172.532 85.2836 166.938 84.8536C161.354 84.4237 169.704 83.8862 163.18 83.6253C149.658 83.0856 132.284 83.2042 118.55 83.1705C113.071 83.1615 116.809 84.1415 116.025 84.163C104.694 84.4115 93.2358 83.3691 86.9531 85.3211C79.097 80.274 80.1202 85.8106 63.9242 84.8003C62.6484 84.7186 61.0253 82.3318 65.9235 81.9814C70.821 81.6314 78.2484 82.3774 85.0441 81.8312C86.6536 81.7031 95.8719 79.4665 97.1298 79.3311C106.982 78.2723 108.379 81.8389 108.9 82.0348C114.811 84.1488 126.076 81.7394 129.043 81.5729C142.614 80.8101 154.144 81.3117 165.495 80.7672C172.919 80.4152 173.645 78.079 179.475 78.1505C198.854 78.3868 205.618 81.646 223.879 78.8201C227.795 78.2174 223.904 75.6639 237.934 77.6718C238.816 77.7984 249.233 79.6352 255.251 78.4733C256.007 78.3269 255.983 77.5827 256.98 77.5202C263.661 77.1158 268.116 77.7087 275.394 77.4247C282.671 77.1408 291.422 76.7175 299.731 76.9699C304.738 77.1208 311.163 78.5073 313.56 78.8468C320.328 79.8246 327.585 78.2213 331.779 79.4055C336.007 80.5956 327.74 82.4029 338.829 83.1719C339.239 81.2385 340.183 79.254 340.843 77.3096C365.143 77.3777 389.052 78.0029 413.432 77.9175C416.455 77.9049 413.364 76.8655 416.604 76.8253C430.275 76.6602 442.216 77.4011 456.394 77.1061C467.368 76.8737 479.402 75.7732 490.877 75.4959C497.886 77.7083 514.915 76.9572 527.285 77.1594C531.618 77.2293 531.328 77.8202 534.41 78.0129C546.035 78.7259 540.588 76.7708 543.775 76.4631C557.449 75.15 558.619 79.5752 574.74 79.4659C575.594 79.4616 586.035 77.1028 587.473 76.9559C596.609 75.998 588.985 77.7769 594.703 77.9512C605.143 78.2697 612.398 78.833 624.647 78.1421C628.219 77.9374 636.786 76.4672 643.722 77.6044C644.635 77.7533 644.13 78.533 644.865 78.5787C658.159 79.3398 658.508 76.8899 666.105 76.0602C673.703 75.2307 685.438 76.9219 687.826 77.4093C694.074 78.6702 683.039 77.9482 682.7 78.0719C678.726 79.5444 687.284 79.2909 693.824 79.4153C694.771 81.8174 703.916 81.6733 700.603 79.5347C700.226 79.3011 695.137 79.5251 693.824 79.4153C699.564 77.0586 709.615 76.7567 720.716 78.9591C725.912 79.9913 721 81.1949 736.785 80.7546C743.949 80.5558 741.181 78.9019 747.503 78.4509C761.946 77.4221 780.715 78.965 795.605 78.7219C801.01 78.6336 795.745 77.7282 799.438 77.6367C809.24 77.391 817.885 78.0704 827.729 77.7224C828.62 77.6897 826.441 76.742 829.502 76.7299C852.709 76.6198 872.916 77.2268 897.146 77.2437C908.853 77.2514 929.784 76.7287 941.911 76.8338C962.93 77.0103 988.788 78.3885 1006.74 78.0537C1018.46 77.8394 1015.89 76.8914 1020.9 76.2456C1030.59 74.9936 1047.73 77.2362 1050.04 77.5834C1050.11 77.5949 1040.03 77.8184 1045.41 78.305C1048.53 79.3189 1049.92 77.5878 1050.04 77.5834C1051.55 77.8077 1071.68 78.0229 1075.68 77.8417C1077.85 77.7427 1076.64 76.8446 1077.77 76.8099C1104.69 76.0062 1131.66 75.7779 1158.96 76.1979C1159.44 76.216 1158.71 77.2206 1159.84 77.2507C1175.65 77.6974 1185.77 76.4685 1198.81 75.7388C1211.84 75.0095 1222.18 75.2538 1229.89 76.9784C1239.73 76.7612 1253.84 77.5237 1261.96 77.9863C1270.08 78.4489 1271.21 76.4934 1271.92 76.4548C1294.21 75.2174 1307.09 76.3367 1330.2 76.5109C1341.19 76.5971 1362.99 76.3135 1374.89 76.0996C1384.3 75.9273 1389.96 76.3856 1398.63 76.0926C1399.8 76.0535 1398.62 75.1828 1398.97 75.1492C1408.64 74.1075 1404 76.2361 1405.99 76.6162C1413.23 77.9987 1417.7 78.7349 1430.09 78.0846C1432.95 77.9357 1441.27 74.8708 1446.47 74.6916C1453.24 74.4642 1450.69 75.5627 1457.78 75.2966C1458.38 75.2749 1458.26 74.5971 1462.63 74.627C1482.94 74.7568 1505.08 75.1512 1526.19 75.0833C1529.07 75.0766 1525.38 74.0016 1529.54 73.9743C1549.09 73.8468 1570.51 73.8866 1589.55 74.3898C1594.24 74.517 1591.3 75.2697 1592.31 75.4932C1598.56 76.8454 1607.42 74.8807 1608.88 74.8432C1643.74 73.8991 1670.42 75.6771 1705.96 74.8306C1707.89 74.7809 1722.78 72.6747 1729.42 74.4811C1729.88 74.6012 1736.45 76.4494 1742.26 75.1858C1742.62 75.1067 1738.52 74.1553 1745.67 74.2522C1752.82 74.349 1764.32 73.7136 1774.14 74.759C1777.25 75.0883 1784.6 76.9319 1793.88 75.4623C1794.48 75.3597 1808.8 72.0368 1813.92 74.3295C1814.74 74.7068 1813.88 77.133 1824.95 75.8891C1827.06 75.6479 1823.22 75.1068 1828.8 74.7688C1837.34 74.248 1848.65 74.8978 1859.15 73.8171C1860.98 73.6257 1868.77 71.979 1875.02 73.2289C1876 73.4246 1874.14 74.2346 1877.44 74.3252C1891.33 74.7101 1905.81 74.3299 1920 74.626L1910.42 84.207C1910.46 82.364 1910.51 80.5256 1910.57 78.6938C1910.77 73.0486 1912.08 75.9348 1912.43 70.0504C1912.78 64.1645 1913.12 52.3078 1912.52 46.1496C1911.92 39.99 1909.83 46.7187 1909.67 37.4912C1909.47 26.3725 1909.41 15.2827 1909.45 4.20704L1921.15 14.6959C1892.42 17.7451 1863.73 20.2025 1834.94 23.2208C1829.03 23.8399 1834.01 24.0469 1825.3 25.0126C1814.32 26.2329 1800.61 27.8272 1786.2 29.4552L1785.27 29.5154C1757.44 30.2018 1727.04 30.7867 1708.61 30.131C1686.15 29.3324 1714.36 27.771 1697.2 27.6147C1688.93 27.5421 1680.03 30.1561 1678.03 30.2745C1658.54 31.4607 1644.95 30.6714 1627.4 31.3706C1624.11 31.5017 1626.74 32.2602 1624.97 32.4847L1626.15 32.3904C1625.97 32.4349 1625.75 32.4792 1625.46 32.5234C1615.04 34.1426 1604 35.2322 1594.03 36.6976C1589.56 37.3572 1590.49 37.9866 1586.36 38.5013C1576.49 39.7414 1567.73 40.6392 1558.02 41.2764C1557.13 41.3345 1562.91 39.589 1555.61 40.5673C1543.8 42.1534 1529.05 43.5002 1515.57 46.0965C1511.57 46.8697 1511.65 48.5919 1502.83 48.6205C1500.97 48.6276 1503.01 46.2641 1493.16 49.4292C1491.51 49.958 1474.89 54.6911 1466.36 54.3124C1464.11 54.2135 1458.28 53.3206 1453.47 54.256C1452.81 54.3892 1455.57 54.9369 1451.57 55.5835C1439.09 57.5853 1426.04 59.3514 1413.15 61.3276L1412.11 61.4145C1410.41 61.4856 1408.71 61.5605 1407.01 61.6406C1403.1 61.8274 1408.96 62.6204 1403.12 62.8684C1387.07 63.5517 1367.02 63.8611 1351.3 63.995C1345.51 64.0426 1349.49 63.1423 1349.07 63.068C1342.26 61.8561 1338.3 63.854 1336.06 64.026C1322.09 65.0701 1311.42 64.4767 1298.54 65.0663C1294.98 65.2267 1297.53 66.0572 1296.82 66.157C1289.5 67.1434 1294.93 65.3764 1290.27 65.3262C1277.24 65.1804 1262.72 65.6525 1249.56 66.1302C1244.72 66.307 1250.19 67.2009 1245.85 67.3474C1220.16 68.2349 1193.45 68.8706 1168.36 68.9859C1163.63 69.0057 1166.58 68.1203 1165.59 67.9638C1158.78 66.8665 1148.89 68.8918 1146.6 69.1216C1136.23 70.1698 1132.17 69.5705 1122.99 69.956C1106.78 70.6413 1089.19 71.2168 1071.33 71.7135L1070.86 71.7157C1039.31 71.1422 1006.95 70.2855 979.906 69.6004C924.719 68.207 881.905 66.6516 829.268 65.8784C825.923 65.8282 829.276 66.9597 826.392 66.9302C789.157 66.5006 752.512 65.406 715.202 65.026C712.141 64.993 716.534 66.0881 711.62 66.0691C701.539 66.0372 688.773 65.7464 678.589 65.2346C673.622 64.9868 680.304 64.2401 675.304 64.0086C663.662 63.4674 651.176 63.1646 639.208 63.1062C634.115 63.0835 641.778 64.2621 635.159 64.1519C610.814 63.7579 586.703 63.3904 562.503 62.7917L563.192 62.7826C542.585 63.5783 521.903 64.2107 500.936 64.5337C497.811 64.5817 494.978 62.5994 488.361 63.301C487.888 63.9077 487.946 64.5937 487.755 65.228C422.195 68.5082 357.257 70.6922 291.493 73.5314C288.72 73.6514 293.562 74.5517 288.194 74.7896C266.736 75.7415 245.713 76.8295 224.275 77.5162L223.807 77.5266C214.202 77.4033 204.516 77.1957 194.677 76.8524C191.52 76.7439 193.14 74.7795 183.839 75.0766C182.198 75.1308 168.189 75.3928 164.568 75.8192C164.076 75.8836 166.631 76.8005 162.117 76.8272C135.885 76.9664 108.395 76.7571 82.2074 76.1969C77.981 76.1047 82.4818 75.1283 79.4716 75.0542C58.1184 74.5358 34.8923 75.2781 14.4884 74.3916C1.80029 73.837 5.26355 72.341 0.000245313 70.7993L3.68567 67.1138C3.56787 67.5161 3.44983 67.9692 3.33191 68.4845C3.09754 69.511 3.0603 77.9682 2.09375 78.4056C-0.336914 79.5284 -2.99841 75.432 -5.58935 77.1128C-6.14734 77.4679 -5.54627 88.7944 -6.8949 82.0884C-6.98511 81.6199 -7.43262 73.4082 -7.89014 71.3856C-8.20642 69.9775 -9.18945 72.515 -9.59436 69.6419C-9.70849 68.8317 -9.72485 67.9989 -9.70019 67.1138L-9.75647 57.4704L0.000246483 57.4134C2.25342 57.4762 4.84522 57.8046 8.26514 57.4631C13.0261 56.9815 10.9327 55.8632 20.441 55.7308ZM1298.51 80.0541C1306.03 80.9932 1307.14 77.5536 1299.01 78.3766C1298.62 78.4204 1298.13 80.0081 1298.51 80.0541ZM388.915 80.5973C398.744 82.1144 405.469 79.8837 398.536 78.712C391.603 77.5416 385.921 80.1374 388.915 80.5973ZM286.999 81.7049C298.485 82.9011 300.294 78.0236 287.991 79.0096C287.275 79.0653 286.327 81.6355 286.999 81.7049ZM32.2863 69.9724C32.1824 69.9267 26.103 69.8822 25.9578 69.9275C22.7206 71.0199 34.877 71.1081 32.2863 69.9724ZM185.864 82.9108C189.45 83.5706 199.774 82.8089 195.319 81.9885C191.732 81.3284 181.398 82.09 185.864 82.9108ZM1690.68 83.7251C1690.8 83.7764 1695.16 83.8225 1695.07 83.5328C1694.78 82.5996 1688.71 82.863 1690.68 83.7251ZM13.9729 82.9669C39.3689 83.1505 54.7668 87.1795 27.1108 86.7249C22.1027 86.6426 37.9049 85.4401 31.5303 85.0768C19.8662 84.4151 12.1215 86.9448 0.218628 85.5892C-1.93579 85.3411 12.524 82.9475 14.0181 82.9613C14.0027 82.9632 13.9882 82.965 13.9729 82.9669ZM1302.84 84.1855C1302.99 84.231 1309.03 84.2741 1309.17 84.229C1312.44 83.1371 1300.28 83.0495 1302.84 84.1855ZM1921.64 59.1974C1921.74 58.8643 1921.83 44.8625 1921.74 44.4059C1919.96 37.1015 1919.77 65.4096 1921.64 59.1974ZM896.5 86.7025C889.916 87.801 882.041 87.9304 876.793 86.5509C883.336 86.6241 889.921 86.6349 896.5 86.7025Z" fill="#EEF0E9"/>
</svg>
